<?xml version="1.0" encoding="UTF-8"?>
<svg id="Capa_1" data-name="Capa 1" xmlns="http://www.w3.org/2000/svg" viewBox="0 0 96.68 122.96">
  <defs>
    <style>
      .cls-1 {
        fill: #fefefe;
      }
    </style>
  </defs>
  <path class="cls-1" d="M.31,39.98V14.14C.31,8.74,9.04.95,14.56.74c21.39,1.46,45.87-2.18,66.89-.05,19.43,1.96,22.22,32.3-3.6,34.23-20.85,1.56-45.16-2.25-65.54-.03-4.41.48-8.31,2.94-12.01,5.1Z"/>
  <path class="cls-1" d="M.31,83.65c2.52.77,4.52,2.54,7.08,3.48,26.51,9.71,43.07-24.85,60.98-38.41,19.73-14.93,38.63,13.16,21.82,26.18-6.44,4.98-10.94,2.86-17.85,4.72-16.38,4.41-31.9,31.82-46.05,40.57-7.11,4.39-16.39,3.14-21.99-3.04-.99-1.1-3.99-5.78-3.99-6.93v-26.57Z"/>
  <path class="cls-1" d="M57.08,44.35c.32,1.27-.53,1.45-1.09,2.19-3.71,4.84-24.46,25.87-29.11,29.12-16.43,11.46-36.01-10.57-22.2-25.84,1.86-2.05,7.99-5.46,10.55-5.46h41.85Z"/>
  <path class="cls-1" d="M39.61,122.96c-.32-1.27.53-1.45,1.09-2.19,3.72-4.85,27.64-28.41,32.22-30.38,18.86-8.14,32.52,18.07,16.87,29.25-.85.61-6.3,3.32-6.87,3.32h-43.31Z"/>
</svg>